Coordinates
version=1
nRows=13
nColumns=36
inDegrees=yes

Units are S.I. units (second, meters, Newtons, ...)
If the header above contains a line with 'inDegrees', this indicates whether rotational values are in degrees (yes) or radians (no).

endheader
time	pelvis_tilt	pelvis_list	pelvis_rotation	pelvis_tx	pelvis_ty	pelvis_tz	hip_flexion_r	hip_adduction_r	hip_rotation_r	knee_angle_r	knee_angle_r_beta	ankle_angle_r	subtalar_angle_r	mtp_angle_r	hip_flexion_l	hip_adduction_l	hip_rotation_l	knee_angle_l	knee_angle_l_beta	ankle_angle_l	subtalar_angle_l	mtp_angle_l	lumbar_extension	lumbar_bending	lumbar_rotation	arm_flex_r	arm_add_r	arm_rot_r	elbow_flex_r	pro_sup_r	arm_flex_l	arm_add_l	arm_rot_l	elbow_flex_l	pro_sup_l
      5.48333330	    -10.66145549	      1.64190455	    -11.30930972	      0.61586274	      0.77145985	      0.23906370	     52.28799737	      8.23353799	     -3.87175096	     69.73147970	      1.21704391	     30.88470722	     -9.98014756	     -7.49999987	     83.64269505	     -1.05990009	     11.06707808	     49.57521968	      0.86525081	      4.86613853	     -3.94507067	     -7.49999987	    -35.14318187	     10.86588987	      4.83514837	     45.19688606	     -7.71186019	     75.83368355	    120.22985122	    101.62397666	     41.13352006	     -9.23085117	     55.05028015	    130.76610369	    109.64917997
      5.50000000	    -10.80581027	      1.41673684	    -11.53586868	      0.61619166	      0.76881205	      0.23924828	     52.87193395	      8.31182721	     -4.33220512	     70.47929153	      1.23009569	     31.33001826	     -9.52312282	     -7.49999987	     83.83171049	     -1.44941088	     11.20048457	     49.39813534	      0.86216011	      5.21003224	     -3.02730061	     -7.49999987	    -35.54150906	     11.23523272	      5.02143707	     45.73723427	     -7.22522464	     75.90111574	    120.20203877	    101.78693523	     41.49579729	     -9.52997732	     55.79759061	    131.17682835	    109.83884017
      5.51666670	    -11.07471161	      1.39379732	    -11.73832512	      0.61654619	      0.76840411	      0.23948240	     53.88476802	      8.22734385	     -4.72638856	     71.49667560	      1.24785239	     31.55602376	     -9.33077784	     -7.49999987	     84.05444425	     -1.73582662	     11.23215213	     49.30258436	      0.86049243	      5.26037658	     -2.37144111	     -7.49999987	    -35.71629885	     11.32897088	      5.30581232	     45.59602401	     -7.05697599	     76.71909499	    119.96614721	    102.21578028	     41.58019079	     -9.65062025	     56.83017999	    130.64447313	    110.22947870
      5.53333330	    -11.41776523	      1.53471607	    -11.82444007	      0.61071801	      0.76339858	      0.23667447	     55.31232257	      7.89512021	     -5.03792268	     72.66958035	      1.26832344	     31.58098936	     -9.22872905	     -7.49999987	     84.55348579	     -1.87233994	     11.12206832	     49.56739237	      0.86511420	      4.99830162	     -1.94412402	     -7.49999987	    -35.77946426	     11.22139269	      5.49862307	     46.39318335	     -6.83281784	     77.63509334	    120.19506667	    102.30028444	     42.59675024	     -9.94998842	     56.58930700	    130.61445287	    110.17485343
      5.55000000	    -11.87805975	      1.67481776	    -11.90417351	      0.61140525	      0.75788921	      0.23706796	     56.74162622	      7.65563535	     -5.28000551	     73.75763798	      1.28731363	     31.93717007	     -8.86794453	     -7.49999987	     85.22552939	     -1.98805782	     11.07886504	     50.07601673	      0.87399137	      4.64332355	     -1.97006661	     -7.49999987	    -35.56006732	     11.12051339	      5.81429027	     46.45669434	     -7.51122279	     78.64080874	    119.43091157	     99.72038319	     42.94047834	    -10.13738688	     56.35695256	    130.46119127	    106.33615302
      5.56666670	    -12.13421256	      1.76423871	    -11.96427610	      0.61140085	      0.75726664	      0.23704846	     57.64464798	      7.55647376	     -5.30066206	     74.41729270	      1.29882678	     31.90850467	     -9.12144387	     -7.49999987	     85.52095775	     -2.07233463	     10.97649862	     50.35605302	      0.87887892	      4.24630463	     -2.19121814	     -7.49999987	    -35.75175871	     11.19870832	      5.55676103	     47.23256875	     -7.65570117	     79.51174901	    118.18998969	     99.88199789	     43.01809518	    -10.88152519	     55.06448479	    130.96954421	    108.04760982
      5.58333330	    -12.23990665	      1.76619501	    -12.08098447	      0.61220181	      0.75521012	      0.23744900	     58.26353205	      7.56844345	     -5.33661999	     74.95193388	      1.30815803	     32.08216566	     -9.09505612	     -7.49999987	     85.49743868	     -2.20051125	     10.91984037	     50.28844743	      0.87769898	      4.04498613	     -2.30662366	     -7.49999987	    -36.10057849	     10.93719914	      5.94414555	     47.33476998	     -7.73136718	     77.96123109	    118.66217837	    100.48338392	     43.63584599	    -11.03858132	     55.78123694	    131.22753279	    109.80669694
      5.60000000	    -12.43244933	      1.67137271	    -12.40652347	      0.61142116	      0.74915835	      0.23705885	     59.00561157	      7.81418453	     -5.41429260	     75.68693941	      1.32098629	     32.37827655	     -9.06516703	     -7.49999987	     85.62386824	     -2.55810625	     11.08027744	     50.40568951	      0.87974524	      4.22590385	     -2.20771644	     -7.49999987	    -36.16320553	     10.90531337	      6.22074405	     47.89833832	     -6.99438992	     78.36571998	    119.98436655	    100.65659245	     43.77733505	    -11.15265568	     56.03358603	    132.43650833	    110.26429026
      5.61666670	    -12.83013809	      1.69435466	    -12.64657283	      0.61180167	      0.74427213	      0.23728479	     59.94480131	      8.10988887	     -5.36945113	     76.47644863	      1.33476583	     32.44566374	     -9.36370846	     -7.49999987	     86.05428842	     -2.77355967	     11.27031056	     50.69801255	      0.88484724	      4.38119704	     -2.37563633	     -7.49999987	    -35.77583758	     10.73493570	      6.57260686	     48.24785135	     -6.47549654	     78.91708822	    121.13317153	    100.85421111	     43.85671492	    -10.98379193	     56.39847822	    132.82737261	    110.51376426
      5.63333330	    -13.14436455	      1.72608250	    -12.76834151	      0.61612738	      0.74286722	      0.23461448	     60.44775212	      8.23571885	     -5.30960172	     76.96664049	      1.34332129	     32.35646941	     -9.99977180	     -7.49999987	     86.29941704	     -2.79317352	     11.46117406	     50.97484101	      0.88967881	      4.70768718	     -2.79949263	     -7.49999987	    -35.67819339	     10.73790231	      6.78979578	     48.59070691	     -6.16096575	     78.45135039	    121.19178155	    100.89816982	     43.55359448	    -10.73211119	     56.83556775	    132.46390851	    110.59666024
      5.65000000	    -13.18733560	      1.73513148	    -12.71991323	      0.61592036	      0.74888611	      0.23447693	     60.18127059	      8.35414345	     -5.08560994	     76.63600562	      1.33755062	     31.59537120	    -11.36194818	     -7.49999987	     85.82282326	     -2.56990685	     11.55109351	     50.52122098	      0.88176165	      4.65763731	     -3.41771072	     -7.49999987	    -36.30668244	     10.82975458	      7.06748281	     48.88472511	     -6.42476437	     77.89498557	    120.30079448	    100.94231257	     43.30821296	    -10.60771301	     57.25051671	    131.14877380	    110.71003654
      5.66666670	    -13.21415287	      1.67425498	    -12.68925689	      0.61495683	      0.74382774	      0.23402605	     60.05193048	      8.61576030	     -4.98137243	     76.53678508	      1.33581890	     31.41901526	    -12.23334168	     -7.49999987	     85.68186015	     -2.45457582	     11.69148822	     50.58902849	      0.88294511	      4.79381524	     -3.99077197	     -7.49999987	    -36.58556986	     10.77758562	      7.58330533	     49.22204557	     -6.39583221	     77.36089872	    120.37677207	     99.02150591	     43.78343607	    -10.15016371	     58.16920766	    130.31929730	    108.16005416
      5.68333330	    -13.41697688	      1.81342264	    -12.82529667	      0.61066690	      0.73815790	      0.23246276	     60.33472441	      8.95047491	     -4.65628707	     76.82209559	      1.34079851	     31.17942593	    -12.89829811	     -7.49999987	     86.01574240	     -2.40701122	     11.78874153	     50.81933399	      0.88696470	      4.61160372	     -4.51904019	     -7.49999987	    -36.43095458	     10.70798498	      7.86285176	     49.06786966	     -6.76199806	     77.26696487	    120.93971057	     99.98893765	     43.92589707	    -10.06474242	     57.29015973	    130.01030366	    110.42220870
